HIERARCHY
ROOT Hips
{
	OFFSET 0.000000 0.000000 0.000000
	CHANNELS 6 Xposition Yposition Zposition Zrotation Yrotation Xrotation 
	JOINT LeftUpLeg_virtual
	{
		OFFSET 0.000000 0.000000 0.000000
		CHANNELS 3 Zrotation Yrotation Xrotation
		JOINT LeftUpLeg
		{
			OFFSET 10.205400 -3.823500 0.155100
			CHANNELS 3 Zrotation Yrotation Xrotation
			JOINT LeftLeg
			{
				OFFSET 0.708757 -12.982077 0.567790
				CHANNELS 3 Zrotation Yrotation Xrotation
				JOINT LeftFoot
				{
					OFFSET -0.708756 -10.717838 -2.184338
					CHANNELS 3 Zrotation Yrotation Xrotation
					JOINT LeftToeBase
					{
						OFFSET 0.108149 -7.191104 7.560241
						CHANNELS 3 Zrotation Yrotation Xrotation
						End Site
						{
							OFFSET 0.000000 0.000000 0.000000
						}
					}
				}
			}
		}
	}
	JOINT RightUpLeg_virtual
	{
		OFFSET 0.000000 0.000000 0.000000
		CHANNELS 3 Zrotation Yrotation Xrotation
		JOINT RightUpLeg
		{
			OFFSET -10.205400 -3.823500 0.005500
			CHANNELS 3 Zrotation Yrotation Xrotation
			JOINT RightLeg
			{
				OFFSET -0.708756 -12.982134 0.610632
				CHANNELS 3 Zrotation Yrotation Xrotation
				JOINT RightFoot
				{
					OFFSET 0.708754 -10.717769 -1.945823
					CHANNELS 3 Zrotation Yrotation Xrotation
					JOINT RightToeBase
					{
						OFFSET -0.108140 -7.191069 7.372968
						CHANNELS 3 Zrotation Yrotation Xrotation
						End Site
						{
							OFFSET 0.000000 0.000000 0.000000
						}
					}
				}
			}
		}
	}
	JOINT Spine_virtual
	{
		OFFSET 0.000000 0.000000 0.000000
		CHANNELS 3 Zrotation Yrotation Xrotation
		JOINT Spine
		{
			OFFSET 0.000000 6.876099 0.125700
			CHANNELS 3 Zrotation Yrotation Xrotation
			JOINT Spine1
			{
				OFFSET 0.000000 8.022060 0.146608
				CHANNELS 3 Zrotation Yrotation Xrotation
				JOINT Spine2
				{
					OFFSET 0.000000 9.168068 0.167552
					CHANNELS 3 Zrotation Yrotation Xrotation
					JOINT Neck_virtual
					{
						OFFSET 0.000000 0.000000 0.000000
						CHANNELS 3 Zrotation Yrotation Xrotation
						JOINT Neck
						{
							OFFSET 0.000000 10.314075 0.188496
							CHANNELS 3 Zrotation Yrotation Xrotation
							JOINT Head
							{
								OFFSET 0.000000 7.643700 -2.377400
								CHANNELS 3 Zrotation Yrotation Xrotation
								End Site
								{
									OFFSET 0.000000 0.000000 0.000000
								}
							}
						}
					}
					JOINT LeftShoulder_virtual
					{
						OFFSET 0.000000 0.000000 0.000000
						CHANNELS 3 Zrotation Yrotation Xrotation
						JOINT LeftShoulder
						{
							OFFSET 4.392200 8.824978 0.174984
							CHANNELS 3 Zrotation Yrotation Xrotation
							JOINT LeftArm
							{
								OFFSET 8.771219 -2.981674 -0.026999
								CHANNELS 3 Zrotation Yrotation Xrotation
								JOINT LeftForeArm
								{
									OFFSET 8.512804 0.000000 -0.000000
									CHANNELS 3 Zrotation Yrotation Xrotation
									JOINT LeftHand
									{
										OFFSET 18.484802 0.000000 -0.000000
										CHANNELS 3 Zrotation Yrotation Xrotation
										End Site
										{
											OFFSET 0.000000 0.000000 0.000000
										}
									}
								}
							}
						}
					}
					JOINT RightShoulder_virtual
					{
						OFFSET 0.000000 0.000000 0.000000
						CHANNELS 3 Zrotation Yrotation Xrotation
						JOINT RightShoulder
						{
							OFFSET -4.392200 8.824993 0.141379
							CHANNELS 3 Zrotation Yrotation Xrotation
							JOINT RightArm
							{
								OFFSET -8.771282 -2.981682 -0.094208
								CHANNELS 3 Zrotation Yrotation Xrotation
								JOINT RightForeArm
								{
									OFFSET -8.494598 0.000000 0.000000
									CHANNELS 3 Zrotation Yrotation Xrotation
									JOINT RightHand
									{
										OFFSET -18.483803 0.000000 0.000001
										CHANNELS 3 Zrotation Yrotation Xrotation
										End Site
										{
											OFFSET 0.000000 0.000000 0.000000
										}
									}
								}
							}
						}
					}
				}
			}
		}
	}
}
MOTION
Frames: 13
Frame Time: 0.033333
-51.554302 33.354610 8.281134 0.077938 -16.800495 0.407998 -1.940935 -2.051020 15.657956 -26.102683 -1.753782 -35.661084 24.720990 5.876048 18.174408 -16.371543 3.158759 -0.659961 0.000000 0.000000 0.000000 2.417548 0.683410 15.084474 -14.499371 -4.009347 -51.369928 4.182087 1.938715 50.990183 5.062184 10.642619 23.566311 0.000000 0.000000 0.000000 1.551344 3.581706 0.606837 2.818936 3.154544 -9.621093 -0.969748 -2.427932 5.812546 -0.015056 0.104302 0.054404 -1.836833 0.036713 9.482610 -0.928220 -2.053136 18.043386 0.000000 0.000000 0.000000 0.179287 0.713508 6.361089 -12.743630 -9.710077 2.795167 -57.045965 4.657210 5.150923 -1.204710 -16.558158 6.217899 0.000000 0.000000 0.000000 -4.170166 1.997775 5.705948 24.385288 -4.833532 3.045460 52.118523 -26.990141 -1.783816 -3.940767 22.311470 -0.735870 0.000000 0.000000 0.000000 
-51.699368 33.355606 9.329412 0.180482 -15.508141 0.565658 -1.764923 -1.859911 16.280248 -26.118970 -3.022116 -34.656025 24.593109 6.096336 18.612585 -16.525089 3.026839 -0.310246 0.000000 0.000000 0.000000 2.460253 1.048654 14.935764 -12.473817 -2.621313 -54.729766 3.224076 2.608156 41.680253 5.779374 10.280728 25.990094 0.000000 0.000000 0.000000 1.433354 3.799691 0.928057 2.890400 2.849493 -9.346692 -0.887617 -2.591317 5.687345 0.038605 0.057539 0.110177 -1.677317 0.091568 9.341109 -0.564162 -1.969156 17.552835 0.000000 0.000000 0.000000 0.228077 0.683748 6.255645 -12.714823 -10.416738 3.054721 -55.725809 2.369249 5.963208 -1.304766 -16.709587 6.054032 0.000000 0.000000 0.000000 -3.957316 2.002061 5.671994 24.514363 -4.763134 2.980284 52.628732 -28.097262 -2.252995 -3.794792 21.574887 -0.638238 0.000000 0.000000 0.000000 
-51.862644 33.305328 10.402884 0.442986 -14.049198 0.717874 -1.651981 -1.894271 17.255517 -26.167087 -4.073897 -33.973354 24.173306 6.080341 19.218334 -16.592442 2.753366 -0.226781 0.000000 0.000000 0.000000 2.423674 1.164698 15.013005 -10.538271 -0.870786 -57.999289 2.177114 3.062609 32.209646 6.421082 9.829766 28.125587 0.000000 0.000000 0.000000 1.181137 3.850750 1.268124 2.870021 2.707947 -9.240391 -0.849769 -2.651409 5.482080 0.000537 0.089371 0.141120 -1.477579 -0.355754 9.546728 -0.214119 -1.918039 17.420753 0.000000 0.000000 0.000000 0.423482 0.450262 6.291736 -12.864866 -10.834622 3.359646 -54.636083 0.416494 6.480751 -1.416197 -16.457990 6.034794 0.000000 0.000000 0.000000 -3.708928 1.825889 5.736672 24.537856 -4.592500 2.872437 52.967157 -29.181396 -2.417787 -3.641408 20.522196 -0.516698 0.000000 0.000000 0.000000 
-52.017014 33.204575 11.561156 0.417108 -12.536513 1.078258 -1.182657 -2.060599 18.387144 -26.580127 -4.554666 -33.440118 23.732676 5.715555 20.070994 -16.785289 2.175985 -0.377122 0.000000 0.000000 0.000000 2.590376 1.256378 15.243164 -8.920153 1.121008 -61.081610 1.117573 3.213280 24.395803 6.804341 9.320948 29.915600 0.000000 0.000000 0.000000 1.168675 3.748306 1.474048 2.845916 2.630946 -9.259630 -0.792838 -2.714403 5.414129 0.035572 0.079235 0.198547 -1.483651 -0.139657 9.469345 0.255411 -1.843600 16.921041 0.000000 0.000000 0.000000 0.372577 0.532728 6.223201 -13.009694 -11.001534 3.521676 -54.023952 -1.102614 6.828129 -1.572902 -15.882888 6.164547 0.000000 0.000000 0.000000 -3.685854 1.895230 5.763308 24.608728 -4.316560 2.988071 53.348675 -30.107658 -2.612145 -3.582965 19.440573 -0.448860 0.000000 0.000000 0.000000 
-52.223335 33.075382 12.914795 0.461668 -10.926186 1.354160 -0.713965 -2.457305 19.272395 -26.672913 -4.672365 -32.715646 22.667572 5.205465 21.128051 -17.127131 1.738719 -0.690196 0.000000 0.000000 0.000000 2.569834 1.310469 15.387057 -7.783810 2.954717 -63.041184 0.309409 3.202492 19.337184 6.579141 8.842271 30.450312 0.000000 0.000000 0.000000 1.049621 3.606648 1.597515 2.836293 2.644817 -9.296699 -0.733606 -2.701711 5.390217 0.060179 0.151959 0.190891 -1.457004 -0.330927 9.516759 0.645158 -1.881873 16.620741 0.000000 0.000000 0.000000 0.406858 0.464845 6.318203 -13.242427 -11.054406 3.700928 -53.815173 -1.976673 7.123508 -1.588717 -15.364384 6.197767 0.000000 0.000000 0.000000 -3.707275 1.793828 5.940062 24.600364 -4.040888 2.962827 53.610305 -30.997297 -2.715650 -3.382986 18.454459 -0.208896 0.000000 0.000000 0.000000 
-52.480007 32.987988 14.476369 1.165444 -9.279317 1.554347 -0.703249 -2.673845 19.656280 -26.172624 -4.488489 -31.450012 21.400099 5.531300 22.710784 -18.282444 -0.234618 -0.506555 0.000000 0.000000 0.000000 2.624070 1.216578 14.896496 -7.276028 3.978724 -63.609593 -0.511621 3.949455 15.168460 7.089350 9.267593 35.480405 0.000000 0.000000 0.000000 0.556485 3.140277 1.479446 2.539726 2.622529 -9.264784 -0.817687 -2.539642 5.339004 0.148842 0.322461 0.180166 -1.366825 -0.465137 9.676675 1.166537 -1.909460 16.570621 0.000000 0.000000 0.000000 0.498935 0.397876 6.555425 -13.395708 -10.934921 3.932831 -53.902118 -2.178194 7.308939 -1.573823 -14.960133 6.272731 0.000000 0.000000 0.000000 -3.545142 1.863685 6.189401 24.758017 -3.837330 3.018898 53.712799 -31.783285 -2.830650 -3.270017 17.810068 -0.034460 0.000000 0.000000 0.000000 
-52.781235 32.959030 16.278814 1.498987 -6.553470 1.541994 -1.058914 -3.336203 19.142870 -24.299984 -3.433768 -29.871983 18.958903 5.459986 24.144743 -19.362813 -0.953255 0.886800 0.000000 0.000000 0.000000 4.306330 1.767255 14.121922 -7.716306 3.022612 -62.485603 -1.754658 6.070117 14.329737 8.291008 9.966148 35.293848 0.000000 0.000000 0.000000 0.333936 3.070767 1.172923 2.374977 2.289498 -9.088169 -0.937712 -2.845423 5.623485 0.169718 0.064952 0.336788 -1.222378 -0.579578 9.451832 1.709044 -1.958500 16.489321 0.000000 0.000000 0.000000 0.619683 0.346427 6.314634 -13.315414 -10.544152 3.927750 -54.263408 -1.464047 7.567693 -1.813654 -14.585548 6.564648 0.000000 0.000000 0.000000 -3.439980 1.776934 5.983547 24.961695 -3.686928 3.133461 53.683231 -32.402100 -2.991613 -3.145360 17.473820 0.161285 0.000000 0.000000 0.000000 
-53.141289 32.958488 18.262039 2.118568 -3.504932 1.136744 -1.612839 -3.958916 18.303838 -22.223069 -2.318659 -27.612160 16.370290 2.844167 25.188256 -20.293260 -1.481371 3.475725 0.000000 0.000000 0.000000 5.874519 1.798627 13.219404 -8.366715 2.381130 -59.898457 -3.455016 7.157632 14.990891 6.923653 8.751264 33.004936 0.000000 0.000000 0.000000 -0.035306 2.569707 1.358507 2.075477 1.904383 -8.944167 -1.003698 -2.975945 5.469934 0.231130 -0.069063 0.263432 -1.127218 -0.715184 9.461835 2.237742 -2.086556 16.870038 0.000000 0.000000 0.000000 0.903823 0.324119 6.471474 -13.020981 -9.929555 3.894600 -54.757285 0.029674 8.074878 -2.161990 -14.651873 7.080291 0.000000 0.000000 0.000000 -3.580189 1.814197 6.194417 25.247805 -3.860892 3.215328 53.763168 -32.890387 -3.462372 -3.089847 17.846425 0.279560 0.000000 0.000000 0.000000 
-53.501003 33.031055 20.258274 2.509025 -1.122005 -0.203235 -2.094074 -4.322905 17.578720 -20.169779 -1.294565 -24.898126 14.100663 -1.335900 26.242263 -21.231300 -2.072933 7.391497 0.000000 0.000000 0.000000 6.466860 1.434556 12.604040 -8.745329 3.124659 -56.469521 -4.500229 7.584380 16.048668 5.884722 7.967829 30.451271 0.000000 0.000000 0.000000 -0.149572 2.630395 1.978419 1.897928 1.713243 -8.447368 -1.098810 -3.002086 5.685359 0.330619 -0.102880 0.106673 -1.057730 -0.617100 9.340456 2.720234 -2.212353 17.356860 0.000000 0.000000 0.000000 1.025922 0.192607 6.381669 -12.646781 -9.634915 3.952799 -55.188618 2.101745 8.840843 -2.415236 -14.508956 7.452673 0.000000 0.000000 0.000000 -3.660789 1.741841 5.883549 25.704152 -3.961681 3.314011 53.603120 -33.304812 -3.967348 -2.980244 18.198040 0.445761 0.000000 0.000000 0.000000 
-53.820435 33.121284 22.218670 2.797384 1.210005 -1.781007 -2.703322 -4.587640 16.671669 -17.843714 0.333236 -22.975315 13.366853 -3.388898 27.766807 -21.546143 -2.126205 10.201881 0.000000 0.000000 0.000000 6.538302 1.030402 12.284944 -9.155425 3.998605 -52.999020 -4.615057 8.147877 16.951862 4.889684 7.433553 28.096741 0.000000 0.000000 0.000000 -0.339021 2.845498 3.059797 1.820249 1.569101 -7.964567 -1.057932 -3.059260 5.651211 0.420295 -0.160203 -0.251326 -0.876531 -0.605452 9.102043 2.907949 -2.549116 18.058207 0.000000 0.000000 0.000000 1.194247 0.257563 6.157688 -12.367142 -9.195358 3.970402 -55.538215 4.403638 9.790329 -2.420144 -14.222255 7.601550 0.000000 0.000000 0.000000 -3.545181 1.596537 5.601792 25.850883 -4.340815 3.470325 53.100206 -33.316594 -4.655004 -2.689286 19.041567 0.817500 0.000000 0.000000 0.000000 
-54.111202 33.191658 24.112738 2.141428 3.309331 -1.602072 -2.778737 -4.588658 15.636772 -15.105986 2.273619 -22.313794 13.486881 -3.877173 30.568921 -21.265002 -1.905529 12.627287 0.000000 0.000000 0.000000 6.698085 0.796500 12.090470 -9.052962 4.841950 -50.223047 -3.979230 8.293038 17.363780 3.443861 6.400357 25.015284 0.000000 0.000000 0.000000 0.111045 2.866490 2.923542 2.151119 1.516099 -8.367805 -0.932707 -2.917926 5.536773 0.328450 -0.137274 -0.223815 -0.886397 -0.413325 9.057814 3.173304 -2.795145 18.568730 0.000000 0.000000 0.000000 1.210191 0.363111 6.064538 -11.964383 -8.910531 3.912685 -55.704212 6.396817 10.847138 -2.655899 -13.831039 8.123782 0.000000 0.000000 0.000000 -3.598094 1.566284 5.457550 26.369484 -4.575919 3.524162 52.445631 -32.749490 -5.440177 -2.653526 20.015801 0.933830 0.000000 0.000000 0.000000 
-54.373940 33.227081 25.899530 1.258357 5.352456 -1.203148 -2.841242 -2.876311 14.900495 -12.310828 6.426038 -23.037094 14.660192 -2.830061 34.653245 -19.723478 -1.081672 13.420692 0.000000 0.000000 0.000000 6.515456 0.650645 12.145664 -8.856629 5.761415 -47.885094 -2.971649 8.821117 17.781884 3.180302 6.112585 23.232919 0.000000 0.000000 0.000000 0.441751 3.005389 2.465019 2.701042 1.522059 -8.805128 -0.578135 -2.868443 5.460811 0.182451 -0.126029 -0.146997 -0.884100 -0.202055 9.096768 3.019729 -3.285739 18.974047 0.000000 0.000000 0.000000 1.207043 0.411533 6.020034 -11.744255 -8.714723 3.860581 -55.784354 8.025054 11.818901 -2.664019 -13.194377 8.209227 0.000000 0.000000 0.000000 -3.625112 1.839520 5.474390 26.808947 -4.643929 3.493839 51.535580 -31.519110 -6.138168 -2.574953 21.017520 0.953952 0.000000 0.000000 0.000000 
-54.597225 33.231445 27.560734 0.800334 6.852079 -0.635652 -2.715373 -2.142256 14.486430 -9.903002 8.601671 -24.784287 15.382196 -3.196335 40.453858 -19.004463 -0.759918 13.091539 0.000000 0.000000 0.000000 5.494449 0.312130 12.326020 -7.477603 7.029282 -45.537315 -2.046108 8.961230 18.487217 2.384766 5.564522 21.363363 0.000000 0.000000 0.000000 0.527380 3.268049 1.844193 3.079207 1.703681 -9.211770 -0.367321 -2.658267 5.327816 0.160882 -0.009017 -0.113837 -0.860265 -0.051574 9.291135 2.762104 -3.739234 19.245281 0.000000 0.000000 0.000000 1.204387 0.671778 6.083505 -11.678742 -8.598002 3.689899 -56.065263 9.157152 12.377410 -2.583758 -12.258918 8.308566 0.000000 0.000000 0.000000 -3.596107 1.973202 5.528682 27.166707 -4.676956 3.521836 50.234252 -29.504857 -6.313223 -2.587496 21.916154 1.073431 0.000000 0.000000 0.000000 
